The Three Musketeers 2011 CAM XviD - ILLUMINATI

Title: The Three Musketeers 2011 CAM XviD - ILLUMINATI
Format: Xvid
Subtitles: No
Sample Included: Yes

source:
Audio : Many Thanx
Video: FLOPPYDiSK source files - Many Thanx

imDb: http://www.imdb.com/title/tt1509767/

Plot:
The hot-headed young D'Artagnan along with three former
legendary but now down on their luck Musketeers must unite
and defeat a beautiful double agent and her villainous
employer from seizing the French throne
and engulfing Europe in war.

Info:

Video
ID : 0
Format : MPEG-4 Visual
Format profile : Advanced Simple@L5
Format settings, BVOP : 2
Format settings, QPel : No
Format settings, GMC : No warppoints
Format settings, Matrix : Default (H.263)
Muxing mode : Packed bitstream
Codec ID : XVID
Codec ID/Hint : XviD
Duration : 1h 45mn
Bit rate : 1 731 Kbps
Width : 720 pixels
Height : 304 pixels
Display aspect ratio : 2.35:1
Frame rate : 25.000 fps
Color space : YUV
Chroma subsampling : 4:2:0
Bit depth : 8 bits
Scan type : Progressive
Compression mode : Lossy
Bits/(Pixel*Frame) : 0.316
Stream size : 1.27 GiB (90%)
Writing library : XviD 64

Audio
ID : 1
Format : MPEG Audio
Format version : Version 1
Format profile : Layer 3
Mode : Joint stereo
Mode extension : MS Stereo
Codec ID : 55
Codec ID/Hint : MP3
Duration : 1h 45mn
Bit rate mode : Constant
Bit rate : 192 Kbps
Channel(s) : 2 channels
Sampling rate : 48.0 KHz
Compression mode : Lossy
Stream size : 144 MiB (10%)
Alignment : Split accross interleaves
Interleave, duration : 40 ms (1.00 video frame)

Release Notes:

Here we have a very nice release for all The Three Musketeers 2011 CAM XviD - ILLUMINATI
Video is nice overall gotter say thanks to FLOPPYDiSK tho for the sourcefiles for us to use on
this release.
Onto audio which honestly must say sounds very nice which was given to use on behalf of
so once again must say thanks for the audio as with out the audio the release wouldnt be what it is.
There is a sample included check it out before you download and if u dont like the sample.....
go to the cinema and watch it or wait for bluray


Poster:

 
http://shareimage.org/images/7jj74v5b9pvq80jmeqa.jpg


Screens:

 
http://shareimage.org/images/5cmmw6gkr0gao256kqkh.png
 
http://shareimage.org/images/e61srnz7ffi297la3xh.png
 
http://shareimage.org/images/nbgdlhasz6b10rv8pd2o.png


ENJOY!